<?xml version="1.0" standalone="no"?>
<!DOCTYPE svg PUBLIC "-//W3C//DTD SVG 20010904//EN"
 "http://www.w3.org/TR/2001/REC-SVG-20010904/DTD/svg10.dtd">
<svg version="1.0" xmlns="http://www.w3.org/2000/svg"
 width="2000.000000pt" height="1500.000000pt" viewBox="0 0 2000.000000 1500.000000"
 preserveAspectRatio="xMidYMid meet">

<g transform="translate(0.000000,1500.000000) scale(0.100000,-0.100000)"
fill="#000000" stroke="none">
<path d="M0 7500 l0 -7500 10000 0 10000 0 0 7500 0 7500 -10000 0 -10000 0 0
-7500z m9320 4424 c141 -26 260 -76 468 -195 108 -62 201 -112 207 -112 7 0
100 50 208 112 291 167 433 211 677 211 309 0 572 -106 793 -319 89 -85 141
-158 263 -366 l111 -190 264 -6 c332 -9 430 -29 622 -127 294 -150 499 -407
589 -739 18 -67 21 -118 27 -358 l6 -280 160 -93 c226 -131 273 -162 361 -244
245 -229 379 -561 361 -893 -12 -213 -60 -350 -217 -625 -61 -104 -110 -195
-110 -200 0 -5 49 -96 110 -200 156 -273 203 -409 216 -620 20 -331 -113 -666
-355 -893 -85 -80 -151 -125 -366 -249 l-160 -93 -6 -280 c-6 -262 -8 -286
-32 -372 -123 -432 -435 -729 -872 -829 -49 -11 -148 -18 -334 -23 l-264 -6
-111 -190 c-131 -223 -177 -287 -285 -386 -138 -128 -305 -219 -498 -270 -111
-30 -354 -38 -476 -15 -171 32 -256 70 -544 237 l-136 80 -193 -111 c-200
-114 -292 -156 -422 -193 -67 -18 -103 -21 -272 -21 -170 0 -205 3 -273 22
-197 54 -361 144 -498 271 -108 99 -154 163 -285 386 l-111 190 -259 6 c-276
6 -350 16 -488 66 -362 130 -624 417 -728 800 -18 68 -21 114 -25 355 l-5 278
-26 18 c-15 10 -85 52 -157 92 -71 41 -163 96 -203 122 -326 219 -521 609
-499 1003 12 213 59 349 217 625 61 105 110 195 110 200 0 5 -49 95 -110 200
-158 276 -205 412 -217 625 -11 199 28 381 122 570 65 132 129 218 234 317 87
82 155 128 376 256 l150 87 6 280 c6 240 9 291 27 358 103 379 362 666 719
797 147 53 217 63 497 69 l260 6 103 179 c118 205 154 256 238 345 160 168
363 282 595 331 111 24 326 26 440 4z"/>
<path d="M8905 11824 c-200 -44 -366 -131 -510 -265 -85 -80 -144 -162 -249
-344 l-86 -150 491 -3 492 -2 411 237 c226 130 417 241 424 246 28 22 -364
230 -503 268 -107 29 -366 36 -470 13z"/>
<path d="M10680 11826 c-140 -30 -204 -58 -427 -184 -114 -65 -149 -90 -140
-98 7 -6 197 -117 423 -248 l411 -236 492 2 492 3 -95 162 c-135 232 -222 335
-369 435 -82 56 -227 122 -322 148 -103 28 -364 37 -465 16z"/>
<path d="M9619 11277 l-366 -212 374 -3 c206 -1 540 -1 743 0 l368 3 -368 213
c-203 116 -373 212 -377 211 -4 0 -173 -95 -374 -212z"/>
<path d="M7410 10945 c-327 -51 -617 -267 -765 -570 -86 -176 -97 -227 -102
-514 -4 -203 -3 -243 8 -238 8 3 200 112 426 244 l413 238 231 400 c127 220
237 412 245 428 l15 27 -193 -1 c-106 -1 -231 -7 -278 -14z"/>
<path d="M7986 10938 c-37 -60 -416 -722 -414 -724 3 -2 1277 732 1287 741 2
3 -190 5 -427 5 l-432 0 -14 -22z"/>
<path d="M8265 10496 l-800 -463 -462 -799 -463 -799 0 -935 0 -935 463 -799
462 -799 803 -464 802 -463 925 0 924 0 803 463 803 463 462 800 463 799 0
935 0 935 -463 799 -462 799 -280 162 c-154 89 -515 297 -802 463 l-523 302
-927 -1 -928 0 -800 -463z m2427 -513 c17 -15 18 -42 18 -439 l0 -423 -22 -15
c-20 -14 -102 -16 -693 -16 -591 0 -673 2 -693 16 l-22 15 0 421 c0 378 2 423
17 440 15 17 50 18 696 18 619 0 682 -1 699 -17z m-829 -963 c5 -19 14 -20
132 -20 118 0 127 1 132 20 5 20 14 20 409 20 l404 0 0 -30 c0 -17 -9 -39 -20
-50 -20 -20 -33 -20 -925 -20 -892 0 -905 0 -925 20 -11 11 -20 33 -20 50 l0
30 404 0 c395 0 404 0 409 -20z m-855 -595 c144 -34 292 -141 396 -288 18 -25
345 -555 727 -1176 l694 -1130 3 1117 c2 1275 8 1192 -79 1274 l-50 47 42 46
c26 28 70 59 117 83 75 36 78 37 192 37 114 0 119 -1 186 -35 82 -42 131 -101
166 -199 l23 -66 5 -1410 c6 -1545 1 -1442 64 -1548 l25 -44 -32 -31 c-18 -17
-57 -42 -88 -56 -150 -69 -336 -60 -509 25 -72 36 -102 59 -191 148 -58 58
-139 154 -180 212 -41 58 -351 554 -689 1102 -338 548 -618 996 -622 996 -12
1 -9 -2062 2 -2142 12 -82 37 -133 86 -176 l37 -33 -20 -26 c-30 -41 -112
-100 -173 -124 -44 -18 -76 -22 -160 -22 -95 -1 -111 2 -168 28 -89 41 -146
110 -183 221 -11 32 -14 311 -19 1435 -5 1298 -7 1398 -23 1440 -18 48 -51 89
-93 117 l-25 16 42 43 c51 52 137 99 215 118 78 19 204 19 282 1z"/>
<path d="M9350 9545 l0 -375 645 0 645 0 0 375 0 375 -645 0 -645 0 0 -375z"/>
<path d="M11140 10950 c60 -37 1276 -737 1278 -736 1 2 -94 169 -211 372
l-213 369 -435 2 c-273 2 -428 -1 -419 -7z"/>
<path d="M12124 10933 c8 -16 118 -208 245 -427 l230 -400 421 -243 c232 -134
424 -243 427 -243 3 0 3 109 1 243 -5 227 -7 248 -32 332 -104 349 -348 602
-686 714 -106 35 -240 51 -438 51 l-183 0 15 -27z"/>
<path d="M6903 9708 l-363 -210 0 -431 c0 -237 2 -428 4 -426 4 5 707 1224
725 1257 6 12 8 22 4 21 -4 0 -171 -95 -370 -211z"/>
<path d="M12720 9899 c19 -35 722 -1253 726 -1258 3 -3 3 190 2 428 l-3 433
-355 205 c-195 113 -361 208 -369 211 -11 4 -11 1 -1 -19z"/>
<path d="M6275 9346 c-175 -102 -219 -132 -297 -204 -133 -123 -243 -309 -294
-497 -24 -88 -27 -119 -28 -255 0 -167 15 -256 71 -392 23 -58 213 -402 218
-396 1 2 113 195 249 430 l246 428 0 485 c0 382 -3 485 -12 484 -7 0 -76 -37
-153 -83z"/>
<path d="M13550 8945 l0 -485 238 -412 c131 -227 243 -421 248 -431 8 -15 27
12 106 150 161 281 193 384 192 623 -1 136 -4 167 -28 255 -65 242 -219 462
-414 593 -77 52 -319 192 -332 192 -7 0 -10 -163 -10 -485z"/>
<path d="M6416 8218 c-8 -13 -104 -179 -214 -370 l-201 -348 206 -357 c113
-197 212 -365 219 -373 12 -12 14 102 14 728 0 408 -2 742 -5 742 -2 0 -11
-10 -19 -22z"/>
<path d="M13550 7500 c0 -628 2 -742 14 -730 7 8 106 176 219 373 l206 357
-206 358 c-113 196 -212 364 -219 372 -12 12 -14 -102 -14 -730z"/>
<path d="M5848 7233 c-161 -282 -194 -389 -192 -628 1 -129 5 -164 28 -249 51
-188 138 -341 270 -472 44 -44 108 -99 141 -121 75 -50 324 -193 336 -193 5 0
9 201 9 485 l0 485 -238 412 c-131 227 -243 421 -249 431 -8 16 -25 -9 -105
-150z"/>
<path d="M13798 6970 l-248 -430 0 -485 c0 -322 3 -485 10 -485 13 0 256 140
333 192 173 117 318 308 386 510 47 136 56 193 55 348 0 229 -33 335 -191 613
-53 92 -96 167 -97 167 0 0 -112 -194 -248 -430z"/>
<path d="M6543 5932 l2 -433 364 -210 c200 -116 365 -209 367 -207 2 3 -562
988 -726 1266 -6 11 -9 -133 -7 -416z"/>
<path d="M13078 5722 c-202 -350 -366 -638 -363 -640 3 -4 712 402 728 417 4
4 6 199 5 433 l-3 426 -367 -636z"/>
<path d="M6543 5139 c4 -225 6 -251 30 -334 108 -375 403 -652 787 -741 43
-10 142 -17 293 -21 l229 -5 -15 28 c-8 16 -119 209 -246 429 l-231 400 -413
238 c-226 132 -418 241 -426 244 -11 5 -12 -35 -8 -238z"/>
<path d="M13270 5282 c-91 -53 -279 -162 -418 -242 l-253 -146 -245 -425 -244
-424 172 -3 c319 -5 499 39 699 170 112 74 185 142 259 240 100 133 164 276
195 441 16 83 22 488 8 486 -5 0 -82 -44 -173 -97z"/>
<path d="M7571 4783 c9 -21 413 -719 423 -731 9 -9 106 -12 440 -10 l428 3
-594 343 c-326 188 -617 357 -647 374 -30 17 -52 27 -50 21z"/>
<path d="M11785 4424 c-346 -201 -637 -369 -645 -374 -9 -6 146 -9 419 -7
l435 2 213 369 c117 203 212 370 211 372 -2 1 -286 -162 -633 -362z"/>
<path d="M8075 3910 c50 -97 182 -311 225 -365 152 -191 366 -319 619 -370
114 -24 341 -16 456 15 139 37 531 245 503 267 -7 5 -198 116 -424 247 l-410
236 -492 0 -493 0 16 -30z"/>
<path d="M9265 3928 c11 -6 178 -103 372 -215 193 -112 355 -203 358 -203 6 0
734 417 744 426 2 2 -333 4 -745 4 -565 -1 -744 -3 -729 -12z"/>
<path d="M10531 3700 c-228 -132 -418 -243 -422 -247 -7 -7 233 -151 336 -201
62 -30 153 -59 244 -77 115 -24 342 -16 456 15 210 56 413 189 545 355 43 54
175 268 225 365 l16 30 -493 0 -493 -1 -414 -239z"/>
</g>
</svg>
